# Blender 4.4.3
# www.blender.org
mtllib testcube.mtl
o Cube_1_Cube_0
v 1.000000 1.000000 1.000000
v -1.000000 1.000000 1.000000
v -1.000000 -1.000000 1.000000
v 1.000000 1.000000 -1.000000
v 1.000000 1.000000 1.000000
v 1.000000 -1.000000 1.000000
v -1.000000 1.000000 -1.000000
v 1.000000 1.000000 -1.000000
v 1.000000 -1.000000 -1.000000
v -1.000000 1.000000 1.000000
v -1.000000 1.000000 -1.000000
v -1.000000 -1.000000 -1.000000
v 1.000000 1.000000 -1.000000
v -1.000000 1.000000 -1.000000
v -1.000000 1.000000 1.000000
v 1.000000 -1.000000 1.000000
v -1.000000 -1.000000 1.000000
v -1.000000 -1.000000 -1.000000
v 1.000000 -1.000000 1.000000
v 1.000000 -1.000000 -1.000000
v -1.000000 -1.000000 -1.000000
v -1.000000 -1.000000 1.000000
v 1.000000 1.000000 1.000000
v 1.000000 -1.000000 -1.000000
vn -0.0000 -0.0000 1.0000
vn 1.0000 -0.0000 -0.0000
vn -0.0000 -0.0000 -1.0000
vn -1.0000 -0.0000 -0.0000
vn -0.0000 1.0000 -0.0000
vn -0.0000 -1.0000 -0.0000
vt 1.000000 0.000000
vt 0.000000 0.000000
vt 0.000000 1.000000
vt 1.000000 1.000000
s 0
usemtl Cube
f 1/1/1 2/2/1 3/3/1
f 4/1/2 5/2/2 6/3/2
f 7/1/3 8/2/3 9/3/3
f 10/1/4 11/2/4 12/3/4
f 13/1/5 14/2/5 15/3/5
f 16/1/6 17/2/6 18/3/6
f 19/4/1 1/1/1 3/3/1
f 20/4/2 4/1/2 6/3/2
f 21/4/3 7/1/3 9/3/3
f 22/4/4 10/1/4 12/3/4
f 23/4/5 13/1/5 15/3/5
f 24/4/6 16/1/6 18/3/6
